<svg width="396" height="90" viewBox="0 0 396 90" fill="none" xmlns="http://www.w3.org/2000/svg">
<path d="M56.4356 58.804C55.8699 59.5153 55.2401 60.1732 54.5542 60.7694C49.7722 65.1258 44.9678 69.4711 40.141 73.8051C35.387 78.0887 30.5994 82.3892 25.8454 86.7064C24.4505 87.9881 22.75 88.8904 20.9066 89.327C22.9072 88.693 24.6658 87.462 25.9462 85.7993C29.7259 81.0285 33.472 76.2409 37.2517 71.4869L48.6411 57.0401C49.1709 56.3701 49.6429 55.6564 50.0522 54.9067C52.2207 51.0376 52.9251 46.5175 52.0369 42.172C51.1487 37.8265 48.727 33.9454 45.2142 31.2375L17.1942 8.67701C16.663 8.2606 16.1015 7.88439 15.5143 7.55151C14.7713 7.11911 13.967 6.80193 13.1289 6.61079C13.8171 5.32524 14.7468 4.1845 15.8671 3.25107C17.7036 1.79156 19.9803 0.99707 22.3261 0.99707C24.672 0.99707 26.9487 1.79156 28.7852 3.25107C29.3335 3.69013 29.8397 4.17941 30.2971 4.71255C38.7299 14.1869 47.1292 23.6669 55.4949 33.1525C58.7098 36.6006 60.5745 41.0917 60.7473 45.8029C60.9201 50.514 59.3893 55.1297 56.4356 58.804Z" fill="#00DCD4"/>
<path d="M33.4887 51.6645L13.4144 69.8742C18.0956 63.9051 22.7992 57.9416 27.5252 51.9837C28.1931 51.2371 28.6959 50.3579 29.0009 49.4037C29.3059 48.4495 29.4062 47.4417 29.2952 46.4461C29.1842 45.4505 28.8645 44.4895 28.3569 43.6259C27.8493 42.7623 27.1652 42.0155 26.3493 41.4342L4.83031 24.0813C3.75667 23.2427 2.86612 22.1932 2.21352 20.9973C1.56093 19.8015 1.16012 18.4847 1.03578 17.128C0.911453 15.7714 1.06623 14.4037 1.49059 13.1091C1.91495 11.8146 2.5999 10.6207 3.50322 9.60089C4.69774 8.28289 6.22442 7.31001 7.92363 6.784C9.62283 6.25798 11.4322 6.19815 13.1624 6.61075C12.952 7.0167 12.7723 7.43784 12.6249 7.87064C12.5514 8.03228 12.4951 8.2012 12.4569 8.3746C12.38 8.57119 12.3182 8.77336 12.2721 8.97935C12.2721 9.16413 12.2721 9.33212 12.1545 9.5169C11.8593 11.1222 11.9375 12.7738 12.3832 14.344C12.8289 15.9141 13.6301 17.3606 14.7247 18.5713L34.127 40.4095C34.8791 41.1624 35.4637 42.0655 35.8426 43.0599C36.2215 44.0543 36.3863 45.1174 36.326 46.1798C36.2658 47.2423 35.9819 48.28 35.4929 49.2251C35.004 50.1703 34.321 51.0015 33.4887 51.6645Z" fill="#E90066"/>
<path d="M50.0015 54.9066C49.5923 55.6564 49.1202 56.37 48.5904 57.0401L37.201 71.554C33.4213 76.308 29.6752 81.0956 25.8955 85.8664C24.6151 87.5291 22.8565 88.7601 20.856 89.3941H20.7552C20.2027 89.5186 19.6408 89.5972 19.0753 89.6293C18.2714 89.6706 17.4655 89.6198 16.6731 89.4781C14.7686 89.1027 12.9961 88.2338 11.5328 86.9583C10.4488 85.9634 9.58874 84.7495 9.00952 83.397C8.4303 82.0446 8.14518 80.5844 8.17305 79.1134C8.15586 78.8169 8.15586 78.5196 8.17305 78.2231C8.17305 77.9543 8.27384 77.7023 8.32423 77.4335C8.4016 77.1203 8.49695 76.8118 8.60981 76.5096C8.60981 76.3248 8.761 76.14 8.82819 75.9721C8.82513 75.9385 8.82513 75.9048 8.82819 75.8713C8.92543 75.6372 9.04349 75.4123 9.18096 75.1993C9.53718 74.5699 9.94156 73.9689 10.3905 73.4019L13.3974 69.8742L33.5557 51.7485C34.3853 51.0855 35.0659 50.2551 35.5532 49.3115C36.0405 48.3679 36.3234 47.3322 36.3837 46.2719C36.4439 45.2116 36.28 44.1505 35.9027 43.1578C35.5255 42.165 34.9433 41.2629 34.194 40.5103L14.7917 18.6721C13.6704 17.4563 12.8481 15.9957 12.3903 14.4064C11.9324 12.8171 11.8516 11.1429 12.1543 9.51687C12.1543 9.33209 12.2383 9.1641 12.2719 8.97932C12.318 8.77333 12.3798 8.57116 12.4567 8.37457C12.4949 8.20117 12.5512 8.03225 12.6247 7.87061C12.7721 7.43781 12.9518 7.01667 13.1622 6.61072C14.0004 6.80186 14.8046 7.11905 15.5476 7.55144C16.1348 7.88432 16.6963 8.26053 17.2275 8.67694L45.2139 31.2374C48.7184 33.9524 51.1301 37.8367 52.009 42.1818C52.8879 46.5269 52.1754 51.0431 50.0015 54.9066Z" fill="#0A26EE"/>
<path d="M202.785 50.4214V76.5936H195.04V52.0676C195.04 44.5083 191.227 40.5102 184.037 40.5102C182.458 40.4311 180.88 40.6788 179.401 41.2378C177.922 41.7968 176.574 42.655 175.442 43.7588C174.31 44.8625 173.417 46.1881 172.821 47.6525C172.225 49.1168 171.937 50.6885 171.976 52.2692V76.6272H164.198V33.102H172.01V38.9479C173.615 37.0567 175.624 35.5497 177.888 34.5379C180.153 33.5262 182.616 33.0355 185.096 33.102C196.166 33.102 202.785 39.6367 202.785 50.4214Z" fill="#0A26EE"/>
<path d="M387.149 33.1021L387.25 39.6031C385.368 37.4676 383.036 35.7766 380.421 34.6523C377.807 33.5281 374.975 32.9986 372.131 33.1021C360.137 33.1021 351.099 42.3917 351.099 54.705C351.099 67.0184 360.137 76.5432 372.131 76.5432C374.976 76.6446 377.809 76.1125 380.424 74.9853C383.038 73.8581 385.37 72.1639 387.25 70.0253L387.367 76.5936H395.061V33.1021H387.149ZM372.769 69.387C364.79 69.387 358.81 63.1547 358.81 54.7554C358.737 52.8785 359.045 51.0062 359.716 49.2516C360.387 47.497 361.406 45.8965 362.712 44.5464C364.018 43.1964 365.584 42.1249 367.315 41.3966C369.047 40.6683 370.908 40.2982 372.786 40.3087C374.704 40.2561 376.612 40.5929 378.396 41.2986C380.18 42.0043 381.803 43.0643 383.165 44.4145C384.528 45.7648 385.603 47.3773 386.325 49.1547C387.048 50.932 387.402 52.8373 387.367 54.7554C387.411 56.6859 387.063 58.6053 386.345 60.3979C385.628 62.1905 384.554 63.8193 383.191 65.1863C381.827 66.5533 380.2 67.6301 378.409 68.3521C376.618 69.074 374.7 69.426 372.769 69.387Z" fill="#0A26EE"/>
<path d="M280.394 39.9391C278.453 37.7126 276.041 35.9445 273.334 34.7622C270.627 33.58 267.691 33.013 264.738 33.1021C252.29 33.1021 243.27 42.2405 243.27 54.8227C243.27 67.4048 252.979 76.5936 266.922 76.5936C272.394 76.6629 277.785 75.2588 282.528 72.5284L282.847 72.3604L281.537 65.137L280.915 65.473C276.6 67.9699 271.689 69.2527 266.704 69.1855C258.691 69.1855 252.778 64.7338 251.585 57.796H284.678L284.762 57.3761C285.355 54.3271 285.271 51.1852 284.516 48.1722C283.761 45.1592 282.354 42.3487 280.394 39.9391ZM251.568 51.2446C252.442 44.8443 257.851 40.4263 265.007 40.4263C272.163 40.4263 276.766 44.5587 277.455 51.2446H251.568Z" fill="#0A26EE"/>
<path d="M218.239 69.471L239.842 39.9055V33.1021H209.118V40.3926H230.418L208.832 69.9413V76.56H241.068V69.471H218.239Z" fill="#0A26EE"/>
<path d="M135.59 33.1021C132.699 33.009 129.818 33.5018 127.122 34.5509C124.426 35.5999 121.97 37.1834 119.902 39.2063C117.833 41.2291 116.196 43.6494 115.087 46.3215C113.978 48.9937 113.421 51.8625 113.45 54.7554C113.396 57.6638 113.934 60.5527 115.032 63.2465C116.129 65.9404 117.763 68.3829 119.834 70.4256C121.905 72.4683 124.37 74.0684 127.078 75.1288C129.787 76.1891 132.683 76.6875 135.59 76.5936C138.497 76.6876 141.392 76.1891 144.1 75.1286C146.808 74.0681 149.272 72.4677 151.341 70.4247C153.411 68.3818 155.043 65.9391 156.139 63.2453C157.234 60.5515 157.77 57.663 157.714 54.7554C157.745 51.8633 157.191 48.9948 156.084 46.3227C154.977 43.6506 153.341 41.2302 151.274 39.2071C149.207 37.1841 146.752 35.6003 144.056 34.5511C141.361 33.5018 138.481 33.009 135.59 33.1021ZM135.59 69.219C133.684 69.2608 131.79 68.9145 130.021 68.2011C128.253 67.4878 126.649 66.4222 125.305 65.0694C123.962 63.7165 122.908 62.1045 122.207 60.3314C121.506 58.5583 121.173 56.6612 121.228 54.7554C121.162 52.8291 121.484 50.9091 122.176 49.11C122.868 47.3109 123.914 45.6695 125.254 44.2834C126.593 42.8974 128.198 41.7951 129.972 41.0423C131.747 40.2895 133.655 39.9015 135.582 39.9015C137.51 39.9015 139.417 40.2895 141.192 41.0423C142.966 41.7951 144.571 42.8974 145.91 44.2834C147.25 45.6695 148.296 47.3109 148.988 49.11C149.68 50.9091 150.002 52.8291 149.936 54.7554C149.994 56.6604 149.663 58.5572 148.964 60.3302C148.265 62.1032 147.212 63.7154 145.87 65.0685C144.528 66.4216 142.924 67.4874 141.157 68.201C139.39 68.9145 137.496 69.2609 135.59 69.219Z" fill="#0A26EE"/>
<path d="M99.5906 54.3019L113.668 33.1021H104.916L93.4255 50.707H85.5302V15.6316H77.7524V76.5432L85.547 76.56L85.5302 57.544H93.0056L106.73 76.5432L116.07 76.56L99.5906 54.3019Z" fill="#0A26EE"/>
<path d="M349.453 75.1154L349.083 75.2833C346.269 76.2786 343.3 76.7677 340.315 76.728C331.815 76.728 326.741 71.806 326.741 63.5747V41.0982H319.232V34.3788H326.775V21.1583H334.486V34.4628H347.488V41.1822H334.519V62.466C334.519 67.1528 336.77 69.6222 341.037 69.6222C343.321 69.6063 345.588 69.2322 347.756 68.5135L348.361 68.2783L349.453 75.1154Z" fill="#0A26EE"/>
<path d="M315.889 34.3452V41.0646L315.469 40.9134C313.74 40.2178 311.891 39.8696 310.027 39.8887C304.718 39.8887 299.057 43.2484 299.057 52.9076V76.8456H291.431V33.6901H299.057V39.2C300.161 37.2035 301.795 35.5499 303.777 34.4208C305.76 33.2917 308.015 32.7308 310.295 32.7997C312.057 32.7516 313.798 33.1812 315.335 34.0428L315.772 34.2612L315.889 34.3452Z" fill="#0A26EE"/>
</svg>
